<svg height="512pt" viewBox="0 0 512 512" width="512pt" xmlns="http://www.w3.org/2000/svg"><path d="m0 466v46h61l30-64.324219-30-86.675781c-37.125 22.269531-61 61.152344-61 105zm0 0" fill="#676e74"/><path d="m512 466c0-43.847656-23.875-82.730469-61-105l-30 85.3125 30 65.6875h61zm0 0" fill="#474f54"/><path d="m421 449.199219-30 62.800781h-270l-30-66.699219 30-84.300781 59.398438-24.902344h151.203124l59.398438 24.902344zm0 0" fill="#676e74"/><path d="m391 361 30 88.199219-30 62.800781h-135v-175.902344h75.601562zm0 0" fill="#474f54"/><path d="m100.785156 235.96875c14.902344 54.960938 46.355469 105.015625 87.402344 132.628906l43.515625-67.597656-16.996094-65.027344zm0 0" fill="#e63950"/><path d="m411.210938 235.980469-113.917969-.003907-18.324219 58.367188 44.851562 74.253906c41.035157-27.613281 72.484376-77.664062 87.390626-132.617187zm0 0" fill="#ae2538"/><path d="m323.800781 368.5c-19.199219 12.898438-45 22.5-67.800781 22.5s-48.601562-9.601562-67.800781-22.5l26.402343-132.601562h30.597657 10.800781 41.398438zm0 0" fill="#474f54"/><path d="m297.398438 235.898438 26.402343 132.601562c-19.199219 12.898438-45 22.5-67.800781 22.5v-155.101562zm0 0" fill="#32393f"/><path d="m421 166c0 23.097656-3.601562 47.101562-9.902344 69.898438-35.398437 39.601562-91.496094 65.101562-155.097656 65.101562s-119.699219-25.5-155.097656-65.101562c-6.300782-23.097657-9.902344-46.800782-9.902344-69.898438 0-9.300781 3-38.402344 9-57.597656h156l156-.300782c6.300781 20.097657 9 47.699219 9 57.898438zm0 0" fill="#676e74"/><path d="m411.097656 235.898438c-35.398437 39.601562-91.496094 65.101562-155.097656 65.101562v-192.597656l156-.300782c6.300781 20.097657 9 47.699219 9 57.898438 0 23.097656-3.601562 47.101562-9.902344 69.898438zm0 0" fill="#474f54"/><path d="m412 108.101562c-21 22.796876-80.699219 42.898438-156 42.898438-77.699219 0-135.300781-21-156-42.597656 20.398438-66.601563 76.800781-108.402344 156-108.402344s135.601562 41.800781 156 108.101562zm0 0" fill="#ff6c6c"/><path d="m412 108.101562c-21 22.796876-80.699219 42.898438-156 42.898438v-151c79.199219 0 135.601562 41.800781 156 108.101562zm0 0" fill="#e63950"/><path d="m211 91h30v30h-30zm0 0" fill="#e63950"/><path d="m271 91h30v30h-30zm0 0" fill="#ae2538"/><path d="m391 361h60v151h-60zm0 0" fill="#e63950"/><path d="m61 361h60v151h-60zm0 0" fill="#ff6c6c"/></svg>